<?xml version="1.0" encoding="UTF-8" standalone="no"?>
<!-- Created with Inkscape (http://www.inkscape.org/) -->

<svg
   width="285.30969mm"
   height="82.291168mm"
   viewBox="0 0 1078.3359 311.02175"
   version="1.1"
   id="svg1"
   xmlns="http://www.w3.org/2000/svg"
   xmlns:svg="http://www.w3.org/2000/svg">
  <defs
     id="defs1" />
  <g
     id="layer1"
     transform="translate(-33.405699,-232.93125)">
    <path
       d="m 163.55843,454.30171 c 1.25878,3.95617 3.41669,7.19304 9.35095,8.272 0.7193,0.17982 1.43861,0.17982 2.33774,0.17982 22.65807,0 67.25492,-50.35128 89.19369,-64.01805 0.89913,-0.35966 1.61844,-1.25879 2.33774,-1.97809 -0.17982,-0.17983 -0.35965,-0.53948 -0.7193,-0.89913 -1.25878,0.7193 -2.51757,1.25878 -3.77635,1.97809 -14.02643,7.91234 -65.27684,62.57945 -86.31648,62.57945 -0.89913,0 -1.79826,-0.17983 -2.51756,-0.35966 -4.31583,-1.07895 -6.29391,-4.136 -6.65357,-8.09217 v -1.07895 c 0,-15.46504 21.93878,-39.02225 23.01773,-44.77668 0.35965,-1.25878 0.35965,-2.33774 0.35965,-3.41669 0,-6.83339 -6.11408,-8.9913 -12.40799,-11.14921 1.79826,-1.97809 2.33774,-3.77635 2.33774,-5.39478 0,-3.4167 -3.05704,-5.57461 -6.11409,-5.57461 -1.4386,0 -2.87721,0.53948 -3.95617,1.61843 -3.05704,3.59652 -4.67547,7.73252 -4.67547,10.96939 0,1.79826 0.53947,3.23687 1.4386,4.136 4.49565,3.05704 14.74574,2.69739 14.74574,7.55269 0,0.35965 -0.17983,0.7193 -0.17983,1.07896 -1.97809,7.37286 -18.52208,27.6932 -18.52208,42.97841 0,1.97809 0.17983,3.77635 0.71931,5.39478 z m 98.90423,-37.40381 c 6.11408,-1.97808 18.34225,-10.42991 24.63616,-14.5659 -1.97808,3.95617 -3.77634,9.53077 -3.77634,14.38608 0,5.21495 2.33774,9.53077 9.35095,9.53077 h 1.07896 c 16.00451,-0.7193 46.3951,-18.16242 57.72414,-29.67129 0.17983,-0.17982 0.17983,-0.35965 0.17983,-0.35965 0,-0.17982 0,-0.17982 -0.17983,-0.17982 h -0.17982 c -2.69739,1.07895 -34.16694,27.15372 -58.62328,27.15372 h -0.17983 c -3.41669,0 -4.67547,-1.97808 -4.67547,-4.8553 0,-7.37287 7.73252,-20.50016 8.9913,-24.45634 0.17982,-0.35965 0.17982,-0.89913 0.17982,-1.4386 0,-1.61844 -0.7193,-3.23687 -2.15791,-3.23687 -0.17982,0 -0.53948,0.17982 -0.7193,0.17982 -0.89913,0.17983 -1.79826,1.25879 -2.51757,1.25879 -0.17982,0 -0.17982,0 -0.35965,-0.17983 -1.79826,-3.05704 -5.75443,-4.8553 -9.89043,-4.8553 -3.41669,0 -7.19304,1.25878 -10.07026,3.77634 -5.03512,4.49565 -9.17112,9.71061 -12.04834,15.64487 -0.89913,2.15791 -1.61843,4.13599 -2.33774,6.29391 -0.17982,0.53947 -0.35965,1.07895 -0.35965,1.61843 0,2.51756 2.33774,4.136 4.49565,4.136 0.53948,0 0.89913,0 1.43861,-0.17983 z m 5.03513,-11.68869 c 1.97808,-3.59652 7.73252,-9.89043 11.68869,-11.86851 0.89913,-0.53948 1.79826,-0.71931 2.51756,-0.71931 1.43861,0 2.87722,0.71931 3.95618,2.51757 -6.29392,6.11408 -10.42991,8.63164 -17.80278,13.12729 -0.35965,0.17983 -0.7193,0.35966 -0.89913,0.35966 -0.17983,0 -0.35965,-0.17983 -0.35965,-0.71931 0,-0.89913 0.7193,-2.51756 0.89913,-2.69739 z m 24.99588,125.69838 c 4.136,-5.39478 4.136,-9.71061 5.75443,-13.1273 5.03513,-10.60973 9.71061,-21.21947 15.46504,-31.46955 16.18434,-29.13181 35.9652,-55.74606 59.52241,-79.66292 6.83338,-7.01321 19.78086,-18.7019 29.67129,-21.21947 0.53948,-0.17982 0.89913,-0.17982 1.07895,-0.17982 0.53948,0 0.89913,0.17982 0.89913,0.7193 0,0.7193 -0.53947,1.97809 -0.89913,3.41669 -1.4386,5.57461 -5.93425,16.18434 -11.14921,19.60104 -8.45182,4.136 -14.56591,8.81147 -23.01773,17.44312 -4.67547,4.67548 -8.9913,9.89043 -12.04834,15.82469 -1.07896,1.97808 -1.43861,3.77634 -1.43861,5.39478 0,2.51756 1.43861,4.136 3.77635,4.136 1.61843,0 3.59652,-0.71931 5.93426,-2.33774 16.90364,-12.04834 22.8379,-21.75895 34.88624,-37.76346 10.78956,-5.93426 47.11441,-13.1273 52.50919,-13.48695 1.43861,-0.17983 3.05705,-0.89913 3.05705,-1.61844 0,-0.35965 -0.71931,-0.7193 -2.51757,-0.7193 -0.89913,0 -2.15791,0.17983 -3.77634,0.35965 -25.89495,3.77635 -33.44764,5.57461 -46.57494,10.07026 4.31583,-5.93426 7.73252,-14.02643 7.73252,-19.60104 0,-3.95617 -1.79826,-6.65356 -6.11408,-6.65356 -0.89913,0 -1.79826,0.17983 -2.87722,0.35965 -6.29391,1.43861 -16.00452,8.9913 -20.67999,13.1273 -16.90365,14.74573 -29.85112,30.3906 -43.33807,48.19337 -0.17982,-0.35965 -0.35965,-0.35965 -0.53948,-0.7193 0,-0.35966 0.17983,-0.89913 0.35966,-1.25879 11.14921,-20.50016 22.29842,-41.18015 36.32485,-60.06188 0.89913,-1.07896 1.61843,-2.15791 2.15791,-3.41669 0.17983,-0.35966 0.17983,-0.71931 0.17983,-1.25879 0,-1.79826 -1.25879,-3.05704 -3.23687,-3.05704 h -0.53948 c -4.31582,0.53948 -9.35095,6.11409 -11.68869,9.17113 -4.8553,6.47373 -9.7106,13.1273 -13.8466,19.96068 -23.73703,39.56172 -42.25911,81.64101 -59.34258,124.4396 -0.35966,0.7193 -0.71931,1.61843 -0.71931,2.69739 v 0.35965 c 0.35965,2.69739 1.43861,3.41669 2.51757,3.41669 1.25878,0 2.33773,-0.89913 2.51756,-1.07895 z m 94.40865,-108.79473 c -5.21495,7.37286 -13.8466,13.8466 -18.88173,18.52207 -0.7193,0.35966 -1.25878,0.53948 -1.61843,0.53948 -0.35965,0 -0.53948,-0.35965 -0.53948,-0.53948 0,-0.53947 0.35965,-1.25878 0.7193,-1.79826 4.136,-5.93425 11.50887,-13.30712 19.24139,-18.34225 0.7193,-0.35965 1.25878,-0.53948 1.61843,-0.53948 0.35965,0 0.53948,0.17983 0.53948,0.35966 0,0.53947 -0.35965,1.07895 -1.07896,1.79826 z m 64.55758,-5.21496 c 6.11408,-1.97808 18.34225,-10.42991 24.63616,-14.5659 -1.97808,3.95617 -3.77634,9.53077 -3.77634,14.38608 0,5.21495 2.33773,9.53077 9.35095,9.53077 h 1.07895 c 16.00452,-0.7193 46.39511,-18.16242 57.72415,-29.67129 0.17983,-0.17982 0.17983,-0.35965 0.17983,-0.35965 0,-0.17982 0,-0.17982 -0.17983,-0.17982 h -0.17983 c -2.69739,1.07895 -34.16694,27.15372 -58.62327,27.15372 h -0.17983 c -3.41669,0 -4.67547,-1.97808 -4.67547,-4.8553 0,-7.37287 7.73251,-20.50016 8.9913,-24.45634 0.17982,-0.35965 0.17982,-0.89913 0.17982,-1.4386 0,-1.61844 -0.7193,-3.23687 -2.15791,-3.23687 -0.17983,0 -0.53948,0.17982 -0.7193,0.17982 -0.89913,0.17983 -1.79826,1.25879 -2.51757,1.25879 -0.17982,0 -0.17982,0 -0.35965,-0.17983 -1.79826,-3.05704 -5.75443,-4.8553 -9.89043,-4.8553 -3.41669,0 -7.19304,1.25878 -10.07026,3.77634 -5.03513,4.49565 -9.17112,9.71061 -12.04834,15.64487 -0.89913,2.15791 -1.61843,4.13599 -2.33774,6.29391 -0.17982,0.53947 -0.35965,1.07895 -0.35965,1.61843 0,2.51756 2.33774,4.136 4.49565,4.136 0.53948,0 0.89913,0 1.43861,-0.17983 z m 5.03513,-11.68869 c 1.97808,-3.59652 7.73251,-9.89043 11.68869,-11.86851 0.89913,-0.53948 1.79826,-0.71931 2.51756,-0.71931 1.43861,0 2.87722,0.71931 3.95617,2.51757 -6.29391,6.11408 -10.42991,8.63164 -17.80277,13.12729 -0.35965,0.17983 -0.71931,0.35966 -0.89913,0.35966 -0.17983,0 -0.35965,-0.17983 -0.35965,-0.71931 0,-0.89913 0.7193,-2.51756 0.89913,-2.69739 z m 79.12351,35.60555 c 3.41669,-0.17983 4.31582,-1.61843 7.01321,-3.59652 18.52208,-16.90364 34.70642,-33.62746 56.82502,-48.55302 0.35965,-0.35965 0.53948,-0.89913 0.53948,-1.25878 0,-0.89913 -0.71931,-1.61844 -1.79826,-1.61844 -0.53948,0 -1.07896,0.17983 -1.79826,0.53948 -21.3993,14.74573 -40.46086,31.8292 -58.44346,47.29424 -0.17982,0.17983 -0.35965,0.17983 -0.53947,0.17983 -0.53948,0 -0.89913,-0.17983 -0.89913,-0.89913 v -0.17983 c 1.4386,-11.14921 9.17112,-28.05286 12.94747,-39.74155 0.17982,-0.35965 0.17982,-0.7193 0.17982,-1.07895 0,-1.97809 -1.79826,-3.59652 -3.59652,-3.59652 -0.7193,0 -1.61843,0.17982 -2.15791,0.89913 -6.83339,6.83339 -13.48695,28.95198 -15.82469,38.84241 -0.17982,1.25879 -0.35965,2.51757 -0.35965,3.77635 0,4.49565 1.61844,8.9913 7.73252,8.9913 z m 73.72859,-8.63165 c 21.93878,-4.67547 46.93459,-21.93877 64.55754,-34.70642 1.07896,-0.7193 1.43861,-1.25878 1.43861,-1.4386 0,-0.35966 -0.35965,-0.35966 -0.53948,-0.35966 -0.17983,0 -0.53948,0 -0.7193,0.17983 -4.67548,3.23687 -9.35096,6.65356 -14.02643,9.7106 -9.89043,6.29391 -39.74155,22.1186 -51.25041,23.37738 h -1.07896 c -3.41669,0 -4.67548,-2.33773 -4.67548,-5.5746 0,-3.23687 1.43861,-7.01322 2.87722,-9.53078 4.31582,-7.01321 9.17113,-13.8466 13.66678,-20.67999 0.89913,-1.25878 2.15791,-2.33774 2.51756,-3.59652 0.17983,-0.35965 0.17983,-0.89913 0.17983,-1.43861 0,-1.61843 -0.89913,-3.05704 -2.69739,-3.05704 -1.43861,0 -3.23687,0.89913 -5.75444,3.41669 -7.73251,7.91235 -16.54399,21.93878 -16.72381,33.62747 v 0.35965 c 0,6.29391 3.41669,10.07025 9.17112,10.07025 0.89913,0 1.97809,-0.17982 3.05704,-0.35965 z m 20.14052,-55.38641 c 4.67547,-1.4386 6.83338,-3.41669 6.83338,-5.21495 0,-0.89913 -0.89913,-1.79826 -2.51756,-2.33774 -1.43861,-0.53948 -2.69739,-0.7193 -3.95617,-0.7193 -3.95617,0 -5.75443,2.51756 -5.75443,4.8553 0,1.97809 1.25878,3.77635 3.59652,3.77635 0.53947,0 1.07895,-0.17983 1.79826,-0.35966 z"
       id="text3"
       style="font-weight:bold;font-size:179.826px;font-family:'modernline - Personal Use';-inkscape-font-specification:'modernline - Personal Use Bold';fill:#f9f9f9;stroke-width:1.12392"
       transform="scale(1.1239152,0.88974685)"
       aria-label="rapavi" />
    <path
       d="m 513.70849,453.64961 c -33.62747,17.08347 -100.52274,60.06189 -115.26847,94.22883 -1.43861,3.23686 -2.33774,7.19304 -2.33774,10.96938 0,8.45183 4.136,16.90365 13.8466,19.60104 4.67548,1.25878 9.35096,1.79826 14.20626,1.79826 6.65356,0 13.30712,-1.07896 20.14051,-2.87722 33.08798,-8.9913 66.89527,-37.40381 83.61909,-59.88206 10.96939,-14.92556 14.74573,-26.43442 14.74573,-35.60555 0,-15.46503 -10.78956,-23.91686 -17.08347,-29.31164 -0.17982,-0.17982 -0.17982,-0.17982 -0.17982,-0.35965 0,-0.17982 0.17982,-0.53948 0.7193,-0.7193 8.45182,-3.4167 18.88173,-6.47374 28.77216,-6.47374 3.4167,0 6.83339,0.35965 10.07026,1.25878 6.11408,1.79826 5.03513,5.75444 7.19304,5.75444 h 0.17982 c -1.61843,-6.29391 -5.5746,-7.5527 -10.4299,-8.45183 -3.23687,-0.53947 -6.29391,-0.7193 -9.17113,-0.7193 -9.89043,0 -18.52208,2.87722 -28.59233,6.47374 -0.71931,0.17982 -1.25879,0.35965 -1.97809,0.35965 -0.7193,0 -1.43861,-0.17983 -2.15791,-0.71931 -24.27651,-15.28521 -57.3645,-19.78086 -79.4831,-32.5485 -8.9913,-5.03513 -17.44312,-12.04834 -17.44312,-21.21947 0,-3.05704 0.89913,-6.29391 3.05704,-9.89043 2.87722,-4.49565 6.29391,-8.272 10.25009,-11.68869 27.15372,-24.63616 58.44345,-41.53981 93.86917,-51.07059 3.77635,-1.07895 14.20625,-3.59652 22.8379,-3.59652 7.55269,0 13.66678,1.79826 13.66678,8.09217 v 0.89913 c -1.61844,15.28521 -23.55721,38.12312 -33.98712,47.11442 -1.97808,1.61843 -3.95617,3.77634 -3.95617,6.29391 0,0.89913 0.17983,1.97808 1.07896,2.87721 0.89913,1.07896 2.15791,1.61844 3.59652,1.61844 2.69739,0 5.75443,-2.15791 6.47373,-4.136 0.89913,-2.69739 2.87722,-4.136 4.67548,-6.11408 10.07026,-9.71061 19.42121,-20.14052 26.2546,-32.36869 2.87721,-5.21495 5.03512,-10.96938 5.03512,-16.36416 0,-6.65356 -3.41669,-12.58782 -12.76764,-14.92556 -2.87722,-0.7193 -6.11409,-1.07896 -9.53078,-1.07896 -10.07026,0 -21.57912,2.87722 -29.85112,5.21496 -29.31163,8.27199 -55.20658,22.8379 -79.30326,41.00033 -6.83339,5.21495 -13.1273,10.96938 -18.70191,17.44312 -6.29391,7.19304 -9.53078,14.02643 -9.53078,20.67999 0,7.91234 4.49565,15.28521 13.84661,22.1186 23.73703,17.62295 61.68031,19.78086 83.25944,34.70642 0.53947,0.53947 1.07895,0.7193 1.07895,1.07895 0,0.17983 -0.17982,0.35965 -0.7193,0.53948 z m 3.95617,1.25878 c 0.53948,-0.35965 1.25878,-0.53948 1.79826,-0.53948 1.07896,0 2.15791,0.53948 3.05704,1.07896 12.22817,8.63165 17.08347,17.80278 17.08347,27.33355 0,10.42991 -5.75443,21.3993 -14.38608,33.08799 -19.60103,26.07477 -49.99163,49.8118 -81.28135,59.34258 -5.21496,1.43861 -12.22817,2.51756 -19.06156,2.51756 -4.49565,0 -8.9913,-0.35965 -12.76764,-1.4386 -8.9913,-2.15792 -12.58783,-9.17113 -12.58783,-16.90365 0,-4.67547 1.25879,-9.53078 3.59653,-13.8466 15.82468,-28.95199 83.25943,-73.72866 114.54916,-90.63231 z m 174.97058,43.15824 c 2.33774,1.25879 4.85531,1.79826 7.5527,1.79826 15.82468,0 35.42572,-19.96068 44.59684,-30.21076 0.35966,-0.35966 0.53948,-0.89913 0.53948,-1.25879 0,-0.35965 0,-0.53947 -0.17982,-0.53947 h -0.17983 c -2.15791,0 -24.81599,28.95198 -43.15824,28.95198 -2.33774,0 -4.67548,-0.53948 -6.83339,-1.61843 -3.59652,-1.97809 -4.49565,-8.81148 -4.49565,-15.82469 0,-5.57461 0.53948,-11.50886 0.53948,-14.92556 v -0.7193 c -0.17983,-3.59652 -1.79826,-5.75444 -4.31583,-5.75444 -1.07895,0 -2.15791,0.35966 -3.59652,1.25879 -6.11408,3.77634 -26.07477,21.93877 -33.80728,28.59233 0,-1.97808 0.53947,-3.41669 1.25878,-4.8553 4.136,-7.37287 9.35095,-17.2633 12.04834,-24.63616 0.17983,-0.53948 0.35965,-1.43861 0.35965,-2.15792 0,-0.53947 -0.17982,-1.07895 -0.53948,-1.4386 -0.35965,-0.17983 -1.07895,-1.07896 -2.33773,-1.07896 h -0.35966 c -1.25878,0 -2.87721,1.07896 -4.67547,2.51756 -12.58782,10.07026 -37.40381,39.74155 -57.18467,39.92138 -3.4167,0 -5.75443,-2.69739 -5.75443,-7.01322 0,-1.97808 0.35965,-4.13599 1.4386,-6.47373 3.77635,-8.45182 10.07026,-17.9826 11.14922,-21.21947 0.17982,-0.35965 0.17982,-0.89913 0.17982,-1.43861 0,-1.61843 -0.7193,-3.23687 -2.33774,-3.23687 h -0.53947 c -1.07896,0.35965 -4.136,5.57461 -4.85531,5.57461 h -0.17982 c -1.43861,-2.51757 -3.4167,-3.77635 -5.57461,-3.77635 -2.69739,0 -5.75443,1.97809 -8.9913,5.39478 -0.7193,0.89913 -7.91234,11.32904 -8.9913,17.62295 v 0.89913 c 0,2.15791 1.79826,3.59652 3.95617,3.59652 0.89913,0 1.97809,-0.17982 2.87722,-0.7193 4.136,-2.51757 7.55269,-6.65356 12.58782,-11.32904 -1.97809,3.95617 -3.77635,9.53078 -3.77635,14.38608 0,5.39478 2.33774,9.7106 9.53078,9.7106 h 0.89913 c 18.70191,-1.79826 40.28103,-24.81598 55.20659,-38.66259 1.61843,-1.43861 3.23686,-3.05704 3.95617,-3.05704 0.17982,0 0.35965,0 0.35965,0.17983 0,1.07895 -3.05704,5.21495 -3.59652,6.29391 -4.67548,8.9913 -11.32904,17.9826 -14.92556,28.59233 -1.25878,2.87722 -5.93426,6.83339 -5.93426,9.71061 0,0.7193 0.35966,1.4386 1.25879,1.97808 0.89913,0.53948 1.79826,0.89913 2.69739,0.89913 3.59652,0 6.83338,-3.95617 10.07025,-6.83339 10.96939,-10.25008 21.93877,-20.50016 33.08799,-30.75024 1.07895,-1.07896 2.51756,-1.79826 4.49565,-3.4167 -0.17983,3.4167 -0.35966,5.93426 -0.35966,8.45183 -0.17982,2.69739 -0.35965,5.93425 -0.35965,9.35095 0,7.01321 1.07896,14.20625 7.19304,17.26329 z m -111.85177,-18.7019 c -0.17983,0.17983 -0.35965,0.17983 -0.53948,0.17983 -0.17983,0 -0.17983,-0.17983 -0.17983,-0.35966 0,-2.33773 5.75444,-12.76764 8.81148,-14.38608 0.89913,-0.35965 1.61843,-0.7193 2.15791,-0.7193 1.07896,0 1.79826,0.7193 3.05704,2.69739 -6.47373,5.93426 -9.17112,10.07026 -13.30712,12.58782 z m 85.41736,124.25977 c 18.70191,-18.16243 26.9739,-30.03094 40.1012,-53.04867 7.73252,-13.48695 15.28521,-26.9739 22.8379,-40.46085 1.25878,-1.97809 2.33774,-3.77635 4.49565,-4.85531 24.45634,-13.30712 48.91268,-26.25459 74.62779,-37.04415 0.71931,-0.35965 1.43861,-0.89913 2.15792,-1.25878 -26.07477,9.53077 -50.89076,21.57912 -75.70675,34.70641 0.17982,-0.89913 0.17982,-1.4386 0.17982,-1.61843 3.77635,-6.83339 7.37287,-13.48695 11.14922,-20.32034 0.53947,-0.7193 1.4386,-1.43861 1.97808,-2.15791 3.05704,-4.136 6.29391,-8.09217 8.9913,-12.58782 0.53948,-0.89913 0.89913,-1.79826 0.89913,-2.69739 0,-2.51757 -1.97808,-4.67548 -4.49565,-4.67548 -1.25878,0 -2.69739,0.71931 -4.136,2.33774 -4.13599,5.03513 -21.57912,36.32485 -26.25459,44.05737 -0.89913,1.79826 -2.15791,3.4167 -3.77635,4.31583 -18.16242,10.4299 -33.80729,23.91685 -48.37319,38.84241 -12.22817,12.58782 -28.77216,33.98712 -31.46955,52.14954 -0.17983,0.89913 -0.17983,1.79826 -0.17983,2.69739 0,6.47374 4.31582,9.35096 9.89043,9.35096 5.39478,0 11.86852,-2.69739 17.08347,-7.73252 z m -20.67999,-11.86852 c 10.96939,-30.93007 43.51789,-60.60136 70.13214,-77.68483 0.35965,-0.35965 0.71931,-0.53948 2.15791,-1.07896 -0.7193,1.79826 -1.07895,2.69739 -1.61843,3.59652 -13.8466,24.63616 -26.79407,49.99163 -44.77667,71.75058 -3.95618,4.67547 -8.45183,8.9913 -13.1273,12.94747 -2.33774,1.97809 -5.75444,3.23687 -8.81148,3.95617 -0.7193,0.17983 -1.25878,0.17983 -1.79826,0.17983 -3.05704,0 -3.95617,-2.33774 -3.95617,-5.03513 0,-3.05704 1.07896,-6.47374 1.79826,-8.63165 z M 765.28496,444.65831 c 2.51756,0 3.95617,-2.33774 3.95617,-4.67548 0,-1.79826 -0.89913,-3.59652 -3.05704,-3.77634 h -0.7193 c -2.69739,0 -4.136,2.33774 -4.136,4.49565 0,1.97808 1.07895,3.77634 3.59652,3.95617 z m 39.74167,44.05737 c 6.11408,-1.97808 18.34225,-10.42991 24.63616,-14.5659 -1.97809,3.95617 -3.77635,9.53077 -3.77635,14.38608 0,5.21495 2.33774,9.53077 9.35095,9.53077 h 1.07896 c 16.00451,-0.7193 46.39511,-18.16242 57.72415,-29.67129 0.17982,-0.17982 0.17982,-0.35965 0.17982,-0.35965 0,-0.17982 0,-0.17982 -0.17982,-0.17982 h -0.17983 c -2.69739,1.07895 -34.16694,27.15372 -58.62328,27.15372 h -0.17982 c -3.4167,0 -4.67548,-1.97808 -4.67548,-4.8553 0,-7.37287 7.73252,-20.50016 8.9913,-24.45634 0.17983,-0.35965 0.17983,-0.89913 0.17983,-1.4386 0,-1.61844 -0.71931,-3.23687 -2.15791,-3.23687 -0.17983,0 -0.53948,0.17982 -0.71931,0.17982 -0.89913,0.17983 -1.79826,1.25879 -2.51756,1.25879 -0.17983,0 -0.17983,0 -0.35965,-0.17983 -1.79826,-3.05704 -5.75444,-4.8553 -9.89043,-4.8553 -3.4167,0 -7.19304,1.25878 -10.07026,3.77634 -5.03513,4.49565 -9.17113,9.71061 -12.04834,15.64487 -0.89913,2.15791 -1.61844,4.13599 -2.33774,6.29391 -0.17983,0.53947 -0.35965,1.07895 -0.35965,1.61843 0,2.51756 2.33774,4.136 4.49565,4.136 0.53948,0 0.89913,0 1.43861,-0.17983 z m 5.03512,-11.68869 c 1.97809,-3.59652 7.73252,-9.89043 11.68869,-11.86851 0.89913,-0.53948 1.79826,-0.71931 2.51757,-0.71931 1.43861,0 2.87721,0.71931 3.95617,2.51757 -6.29391,6.11408 -10.42991,8.63164 -17.80277,13.12729 -0.35966,0.17983 -0.71931,0.35966 -0.89913,0.35966 -0.17983,0 -0.35966,-0.17983 -0.35966,-0.71931 0,-0.89913 0.71931,-2.51756 0.89913,-2.69739 z m 75.88664,49.0925 c 1.25879,3.95617 3.4167,7.19304 9.35096,8.272 0.7193,0.17982 1.4386,0.17982 2.33773,0.17982 22.65808,0 67.25493,-50.35128 89.1937,-64.01805 0.89913,-0.35966 1.61844,-1.25879 2.33774,-1.97809 -0.17982,-0.17983 -0.35965,-0.53948 -0.7193,-0.89913 -1.25879,0.7193 -2.51757,1.25878 -3.77635,1.97809 -14.02643,7.91234 -65.27684,62.57944 -86.31648,62.57944 -0.89913,0 -1.79826,-0.17982 -2.51757,-0.35965 -4.31582,-1.07895 -6.29391,-4.136 -6.65356,-8.09217 v -1.07895 c 0,-15.46504 21.93878,-39.02225 23.01773,-44.77668 0.35965,-1.25878 0.35965,-2.33774 0.35965,-3.41669 0,-6.83339 -6.11408,-8.9913 -12.40799,-11.14921 1.79826,-1.97809 2.33774,-3.77635 2.33774,-5.39479 0,-3.41669 -3.05704,-5.5746 -6.11409,-5.5746 -1.43861,0 -2.87721,0.53948 -3.95617,1.61843 -3.05704,3.59652 -4.67548,7.73252 -4.67548,10.96939 0,1.79826 0.53948,3.23687 1.43861,4.136 4.49565,3.05704 14.74574,2.69739 14.74574,7.55269 0,0.35965 -0.17983,0.7193 -0.17983,1.07896 -1.97809,7.37286 -18.52208,27.6932 -18.52208,42.97841 0,1.97809 0.17983,3.77635 0.7193,5.39478 z"
       id="text5"
       style="font-weight:bold;font-size:179.826px;font-family:'modernline - Personal Use';-inkscape-font-specification:'modernline - Personal Use Bold';fill:#f9f9f9;stroke-width:1.12392"
       transform="scale(1.1239152,0.88974685)"
       aria-label="Sanjar" />
    <path
       d="m 47.272382,306.53134 c 43.46672,-7.73334 97.866788,-7.2 138.666838,-9.33334 2.66667,0 4,0.26667 4,1.6 0,0.8 -0.26666,1.86667 -1.33333,3.46667 -23.4667,39.46672 -94.400117,175.73355 -104.533463,220.26694 -0.800001,2.93333 -1.066668,5.33334 -1.066668,7.46667 0,5.60001 2.400003,7.73335 5.066673,7.73335 2.66667,0 5.600007,-2.40001 6.666675,-4.80001 0.266667,-0.53333 0.266667,-0.8 0.266667,-1.06667 0,-2.4 -3.466671,-2.4 -5.066673,-3.73334 0.266667,-1.86666 0.533334,-4.26667 1.066668,-6.13334 16.533351,-56.5334 78.933431,-165.33353 108.533461,-219.20026 1.33334,-2.13334 4.26668,-6.13334 8.26668,-6.13334 13.60002,-0.53334 76.8001,-1.33334 129.86683,-1.33334 35.20004,0 65.86674,0.26667 75.20009,1.06667 1.33333,0.26667 7.20001,2.66667 9.06668,2.66667 h 0.26666 c 0.26667,0 2.66667,-1.86667 2.66667,-3.73334 0,-1.06667 -1.06666,-2.13334 -4,-2.66667 -6.66668,-0.53333 -15.20002,-0.8 -21.8667,-1.06667 -25.60003,-0.8 -114.6668,-2.66667 -162.40019,-2.66667 -10.13335,0 -18.40003,0 -23.73337,0.26667 -1.86666,0 -2.66667,-0.26667 -2.66667,-1.06667 0,-0.8 0.53334,-1.6 1.33334,-2.93334 5.60001,-8.80001 20.00002,-29.8667 25.8667,-40.00004 1.86667,-2.66667 3.73334,-5.60001 3.73334,-7.73335 0,-0.8 -0.26667,-1.33333 -0.80001,-1.86667 -2.13333,-1.86666 -4.26667,-2.66667 -6.4,-2.66667 -2.93334,0 -5.60001,1.86667 -7.73335,4.26668 -5.33334,5.86667 -24.53336,41.06671 -28.00003,47.20005 -1.86667,3.46667 -2.66667,4.80001 -6.93334,5.06668 -28.2667,0.8 -86.40011,3.73333 -114.400142,4.8 H 62.205734 c -7.733343,0 -14.933352,0.53334 -22.400028,3.20001 -5.066672,1.6 -6.400007,3.73333 -6.400007,5.6 0,0.53334 0.266667,1.33334 0.533334,1.86667 0.800001,1.33334 1.600002,2.4 5.333339,2.4 1.866669,0 4.533339,-0.26666 8.00001,-0.8 z"
       id="text6"
       style="font-weight:bold;font-size:266.667px;font-family:'modernline - Personal Use';-inkscape-font-specification:'modernline - Personal Use Bold';fill:#f9f9f9"
       aria-label="t" />
  </g>
</svg>
